<svg width="104" height="48" viewBox="0 0 104 48" fill="none" xmlns="http://www.w3.org/2000/svg">
<path d="M80 47.25C92.8406 47.25 103.25 36.8406 103.25 24C103.25 11.1594 92.8406 0.75 80 0.75C67.1594 0.75 56.75 11.1594 56.75 24C56.75 36.8406 67.1594 47.25 80 47.25Z" stroke="white" stroke-width="1.5"/>
<path d="M73.0264 25.049H84.4994L79.4844 30.194C79.2908 30.3957 79.1827 30.6644 79.1827 30.944C79.1827 31.2236 79.2908 31.4923 79.4844 31.694C79.5778 31.792 79.6902 31.8701 79.8146 31.9234C79.9391 31.9767 80.073 32.0042 80.2084 32.0042C80.3438 32.0042 80.4778 31.9767 80.6023 31.9234C80.7267 31.8701 80.839 31.792 80.9324 31.694L87.6994 24.743C87.8922 24.5435 87.9999 24.2769 87.9999 23.9995C87.9999 23.7221 87.8922 23.4555 87.6994 23.256L80.9324 16.308C80.839 16.21 80.7267 16.1319 80.6023 16.0786C80.4778 16.0253 80.3438 15.9978 80.2084 15.9978C80.073 15.9978 79.9391 16.0253 79.8146 16.0786C79.6902 16.1319 79.5778 16.21 79.4844 16.308C79.2917 16.5075 79.1839 16.7741 79.1839 17.0515C79.1839 17.3289 79.2917 17.5955 79.4844 17.795L84.4994 22.94H73.0264C72.7524 22.9485 72.4924 23.0633 72.3015 23.2601C72.1106 23.4569 72.0039 23.7203 72.0039 23.9945C72.0039 24.2687 72.1106 24.5321 72.3015 24.7289C72.4924 24.9258 72.7524 25.0406 73.0264 25.049Z" fill="white"/>
<path d="M24 0.75C11.1594 0.75 0.75 11.1594 0.75 24C0.75 36.8406 11.1594 47.25 24 47.25C36.8406 47.25 47.25 36.8406 47.25 24C47.25 11.1594 36.8406 0.75 24 0.75Z" stroke="white" stroke-width="1.5"/>
<path d="M30.9736 22.951H19.5006L24.5156 17.806C24.7092 17.6043 24.8173 17.3356 24.8173 17.056C24.8173 16.7764 24.7092 16.5077 24.5156 16.306C24.4222 16.208 24.3098 16.1299 24.1854 16.0766C24.0609 16.0233 23.927 15.9958 23.7916 15.9958C23.6562 15.9958 23.5222 16.0233 23.3977 16.0766C23.2733 16.1299 23.161 16.208 23.0676 16.306L16.3006 23.257C16.1078 23.4565 16.0001 23.7231 16.0001 24.0005C16.0001 24.2779 16.1078 24.5445 16.3006 24.744L23.0676 31.692C23.161 31.79 23.2733 31.8681 23.3977 31.9214C23.5222 31.9747 23.6562 32.0022 23.7916 32.0022C23.927 32.0022 24.0609 31.9747 24.1854 31.9214C24.3098 31.8681 24.4222 31.79 24.5156 31.692C24.7083 31.4925 24.8161 31.2259 24.8161 30.9485C24.8161 30.6711 24.7083 30.4045 24.5156 30.205L19.5006 25.06H30.9736C31.2476 25.0515 31.5076 24.9367 31.6985 24.7399C31.8894 24.5431 31.9961 24.2797 31.9961 24.0055C31.9961 23.7313 31.8894 23.4679 31.6985 23.2711C31.5076 23.0742 31.2476 22.9594 30.9736 22.951Z" fill="white"/>
</svg>
